<svg width="42" height="25" viewBox="0 0 42 25" fill="none" xmlns="http://www.w3.org/2000/svg">
<path d="M0.00918579 0V5.00339V9.97474V14.9442H5.01401V9.97474V5.00339V0H0.00918579Z" fill="url(#paint0_linear_5752_673)"/>
<path d="M38.3244 7.85001C36.3694 5.90127 33.8089 4.92594 31.246 4.92594C28.684 4.92594 26.1225 5.90127 24.1666 7.85001L20.6274 11.3806L17.0887 7.85001C13.1792 3.95109 6.84129 3.95109 2.93232 7.85001C-0.977116 11.7513 -0.977116 18.072 2.93232 21.9714C6.84081 25.8704 13.1792 25.8704 17.0887 21.9714L19.7554 19.3119L17.0887 14.9107L20.6274 18.4418L24.1666 21.9714C28.0784 25.8704 34.4154 25.8704 38.3249 21.9714C42.2343 18.0725 42.2343 11.7513 38.3244 7.85001ZM13.55 18.4418C12.6048 19.3851 11.3477 19.9046 10.0103 19.9046C8.67236 19.9046 7.41577 19.3851 6.47058 18.4418C5.52538 17.498 5.00543 16.2438 5.00543 14.9107C5.00543 13.5766 5.52491 12.3244 6.47058 11.3806C7.41577 10.4383 8.67236 9.91881 10.0103 9.91881C11.3472 9.91881 12.6048 10.4383 13.55 11.3806L17.0892 14.9107L13.55 18.4418ZM34.7847 18.4418C33.84 19.3851 32.5825 19.9046 31.2455 19.9046C29.9086 19.9046 28.651 19.3851 27.7058 18.4418L24.1661 14.9107L27.7058 11.3806C28.651 10.4383 29.9086 9.91881 31.2455 9.91881C32.582 9.91881 33.84 10.4383 34.7847 11.3806C35.7304 12.3244 36.2523 13.5766 36.2523 14.9107C36.2527 16.2438 35.7304 17.498 34.7847 18.4418Z" fill="url(#paint1_linear_5752_673)"/>
<path d="M20.6083 11.3614L24.3623 7.58442C24.3623 7.58442 26.9902 4.91626 31.246 4.91722C33.3717 4.9177 36.1035 5.63568 38.3249 7.85468C38.3249 7.85468 42.0248 11.1815 41.1385 16.4666C41.1385 16.4666 40.6946 20.6157 36.9358 23.1643C36.0222 23.7838 32.0491 26.1467 27.2146 24.0531C27.2146 24.0531 36.8401 21.249 36.2102 14.4495C35.9375 11.5096 33.343 9.98854 31.4029 9.93018C31.4029 9.93018 29.3092 9.77759 27.7068 11.3905L24.1752 14.9187L20.6083 11.3614Z" fill="url(#paint2_linear_5752_673)"/>
<path d="M19.765 19.3277L17.8765 21.208C17.8765 21.208 15.4035 24.2555 11.5692 24.8194C7.73483 25.3839 4.993 23.6121 4.993 23.6121C4.993 23.6121 1.46623 21.8915 0.280437 17.3842C0.280437 17.3842 -0.00704293 16.3998 0.000132108 14.9361C0.000132108 14.9361 3.99376 19.9055 9.98348 19.9055C9.98348 19.9055 11.905 20.0332 13.5289 18.4815L17.0887 14.9112L19.765 19.3277Z" fill="url(#paint3_linear_5752_673)"/>
<path d="M17.0887 14.9107L19.765 19.3277L20.6274 18.4418L17.0887 14.9107Z" fill="#1253A5"/>
<defs>
<linearGradient id="paint0_linear_5752_673" x1="2.51156" y1="25.232" x2="2.51156" y2="1.04674" gradientUnits="userSpaceOnUse">
<stop offset="0.4158" stop-color="#6FC05E"/>
<stop offset="0.5325" stop-color="#74C15C"/>
<stop offset="0.6661" stop-color="#82C556"/>
<stop offset="0.8078" stop-color="#98CC4D"/>
<stop offset="0.9545" stop-color="#B8D540"/>
<stop offset="0.9656" stop-color="#BBD63F"/>
</linearGradient>
<linearGradient id="paint1_linear_5752_673" x1="42.3966" y1="24.8879" x2="0.58745" y2="5.72535" gradientUnits="userSpaceOnUse">
<stop offset="0.0877" stop-color="#1253A5"/>
<stop offset="0.3069" stop-color="#348BB8"/>
<stop offset="0.4792" stop-color="#4BB1C4"/>
<stop offset="0.5699" stop-color="#54BFC9"/>
<stop offset="1" stop-color="#BBD63F"/>
</linearGradient>
<linearGradient id="paint2_linear_5752_673" x1="8.07704" y1="-0.312297" x2="38.1262" y2="19.3261" gradientUnits="userSpaceOnUse">
<stop offset="0.348" stop-color="#1253A5"/>
<stop offset="0.3634" stop-color="#1156A5"/>
<stop offset="0.624" stop-color="#058BAC"/>
<stop offset="0.7514" stop-color="#009FAF"/>
<stop offset="1" stop-color="#54BFC9"/>
</linearGradient>
<linearGradient id="paint3_linear_5752_673" x1="25.888" y1="13.4999" x2="5.38071" y2="20.0681" gradientUnits="userSpaceOnUse">
<stop stop-color="#009FAF"/>
<stop offset="0.1604" stop-color="#1CAAB8"/>
<stop offset="0.348" stop-color="#34B3BF"/>
<stop offset="0.5447" stop-color="#46BAC5"/>
<stop offset="0.754" stop-color="#51BEC8"/>
<stop offset="0.9976" stop-color="#54BFC9"/>
</linearGradient>
</defs>
</svg>
