<svg width="152" height="32" viewBox="0 0 152 32" fill="none" xmlns="http://www.w3.org/2000/svg">
<path d="M55.5923 17.5278V23.3315H52.8323V22.0648C52.2841 22.9914 51.2256 23.4826 49.7322 23.4826C47.3506 23.4826 45.9328 22.1595 45.9328 20.4012C45.9328 18.6055 47.1994 17.3575 50.2995 17.3575H52.6434C52.6434 16.0909 51.8871 15.3538 50.2995 15.3538C49.2218 15.3538 48.1068 15.713 47.3692 16.299L46.3107 14.2383C47.4262 13.4443 49.0707 13.0095 50.6966 13.0095C53.7966 13.0099 55.5923 14.4464 55.5923 17.5278ZM52.6434 20.1175V19.0776H50.6205C49.2405 19.0776 48.8057 19.588 48.8057 20.2687C48.8057 21.0058 49.4294 21.4975 50.4693 21.4975C51.4528 21.4975 52.3033 21.0436 52.6434 20.1175Z" fill="#1253A5"/>
<path d="M75.4409 17.5087V23.331H72.492V17.9626C72.492 16.3181 71.7548 15.5618 70.5638 15.5618C69.2407 15.5618 68.3142 16.4123 68.3142 18.2271V23.331H65.3652V17.9626C65.3652 16.3181 64.6659 15.5618 63.4371 15.5618C62.1326 15.5618 61.2066 16.4123 61.2066 18.2271V23.331H58.2576V13.1611H61.0741V14.333C61.8303 13.4634 62.9645 13.0099 64.2689 13.0099C65.6867 13.0099 66.8964 13.5581 67.6148 14.6736C68.4275 13.6337 69.7511 13.0099 71.2822 13.0099C73.7021 13.0099 75.4409 14.4086 75.4409 17.5087Z" fill="#1253A5"/>
<path d="M87.3562 17.5278V23.3315H84.5962V22.0648C84.0481 22.9914 82.9895 23.4826 81.4961 23.4826C79.1145 23.4826 77.6967 22.1595 77.6967 20.4012C77.6967 18.6055 78.9634 17.3575 82.0634 17.3575H84.4073C84.4073 16.0909 83.651 15.3538 82.0634 15.3538C80.9858 15.3538 79.8708 15.713 79.1332 16.299L78.0746 14.2383C79.1901 13.4443 80.8346 13.0095 82.4605 13.0095C85.5606 13.0099 87.3562 14.4464 87.3562 17.5278ZM84.4073 20.1175V19.0776H82.3844C81.0044 19.0776 80.5696 19.588 80.5696 20.2687C80.5696 21.0058 81.1934 21.4975 82.2333 21.4975C83.2162 21.4975 84.0672 21.0436 84.4073 20.1175Z" fill="#1253A5"/>
<path d="M96.3356 13.2213V15.9435C96.0897 15.9244 95.9008 15.9058 95.6741 15.9058C94.0482 15.9058 92.971 17.5531 92.971 18.5299V23.3314H90.022V13.1611H92.8385V14.5033C93.5565 13.5203 94.7666 13.2213 96.3356 13.2213Z" fill="#1253A5"/>
<path d="M113.698 18.2463C113.698 21.4411 111.486 23.4826 108.632 23.4826C107.271 23.4826 106.174 23.0478 105.437 22.1596V23.3315H102.62V8.52556H105.569V14.2383C106.326 13.4065 107.365 13.0095 108.632 13.0095C111.486 13.01 113.698 15.0515 113.698 18.2463ZM110.711 18.2463C110.711 16.4884 109.596 15.4299 108.121 15.4299C106.647 15.4299 105.532 16.4884 105.532 18.2463C105.532 20.0042 106.647 21.0627 108.121 21.0627C109.596 21.0627 110.711 20.0042 110.711 18.2463Z" fill="#1253A5"/>
<path d="M125.119 17.5278V23.3315H122.359V22.0648C121.811 22.9914 120.752 23.4826 119.259 23.4826C116.877 23.4826 115.459 22.1595 115.459 20.4012C115.459 18.6055 116.726 17.3575 119.826 17.3575H122.17C122.17 16.0909 121.414 15.3538 119.826 15.3538C118.748 15.3538 117.633 15.713 116.896 16.299L115.837 14.2383C116.953 13.4443 118.597 13.0095 120.223 13.0095C123.323 13.0099 125.119 14.4464 125.119 17.5278ZM122.17 20.1175V19.0776H120.147C118.767 19.0776 118.332 19.588 118.332 20.2687C118.332 21.0058 118.956 21.4975 119.996 21.4975C120.979 21.4975 121.83 21.0436 122.17 20.1175Z" fill="#1253A5"/>
<path d="M138.181 17.5087V23.331H135.232V17.9626C135.232 16.3181 134.476 15.5618 133.172 15.5618C131.754 15.5618 130.733 16.4314 130.733 18.3027V23.331H127.784V13.1611H130.601V14.3521C131.395 13.4825 132.586 13.0099 133.966 13.0099C136.367 13.0099 138.181 14.4086 138.181 17.5087Z" fill="#1253A5"/>
<path d="M145.213 19.3426L143.796 20.7413V23.331H140.847V13.206H143.796V17.2441L148.105 13.1611H151.622L147.387 17.4709L152 23.331H148.427L145.213 19.3426Z" fill="#1253A5"/>
<path d="M0.00918579 3.5V8.50339V13.4747V18.4442H5.01401V13.4747V8.50339V3.5H0.00918579Z" fill="url(#paint0_linear_5751_633)"/>
<path d="M38.3244 11.35C36.3694 9.40126 33.8089 8.42594 31.246 8.42594C28.684 8.42594 26.1225 9.40126 24.1666 11.35L20.6274 14.8806L17.0887 11.35C13.1792 7.45109 6.84129 7.45109 2.93232 11.35C-0.977116 15.2513 -0.977116 21.572 2.93232 25.4714C6.84081 29.3704 13.1792 29.3704 17.0887 25.4714L19.7554 22.8119L17.0887 18.4107L20.6274 21.9418L24.1666 25.4714C28.0784 29.3704 34.4154 29.3704 38.3249 25.4714C42.2343 21.5725 42.2343 15.2513 38.3244 11.35ZM13.55 21.9418C12.6048 22.8851 11.3477 23.4045 10.0103 23.4045C8.67236 23.4045 7.41577 22.8851 6.47058 21.9418C5.52538 20.998 5.00543 19.7438 5.00543 18.4107C5.00543 17.0766 5.52491 15.8244 6.47058 14.8806C7.41577 13.9383 8.67236 13.4188 10.0103 13.4188C11.3472 13.4188 12.6048 13.9383 13.55 14.8806L17.0892 18.4107L13.55 21.9418ZM34.7847 21.9418C33.84 22.8851 32.5825 23.4045 31.2455 23.4045C29.9086 23.4045 28.651 22.8851 27.7058 21.9418L24.1661 18.4107L27.7058 14.8806C28.651 13.9383 29.9086 13.4188 31.2455 13.4188C32.582 13.4188 33.84 13.9383 34.7847 14.8806C35.7304 15.8244 36.2523 17.0766 36.2523 18.4107C36.2527 19.7438 35.7304 20.998 34.7847 21.9418Z" fill="url(#paint1_linear_5751_633)"/>
<path d="M20.6083 14.8614L24.3623 11.0844C24.3623 11.0844 26.9902 8.41626 31.246 8.41722C33.3717 8.4177 36.1035 9.13568 38.3249 11.3547C38.3249 11.3547 42.0248 14.6815 41.1385 19.9666C41.1385 19.9666 40.6946 24.1157 36.9358 26.6643C36.0222 27.2837 32.0491 29.6467 27.2146 27.5531C27.2146 27.5531 36.8401 24.749 36.2102 17.9495C35.9375 15.0096 33.343 13.4885 31.4029 13.4302C31.4029 13.4302 29.3092 13.2776 27.7068 14.8905L24.1752 18.4187L20.6083 14.8614Z" fill="url(#paint2_linear_5751_633)"/>
<path d="M19.765 22.8277L17.8765 24.708C17.8765 24.708 15.4035 27.7555 11.5692 28.3194C7.73483 28.8839 4.993 27.1121 4.993 27.1121C4.993 27.1121 1.46623 25.3915 0.280437 20.8842C0.280437 20.8842 -0.00704293 19.8998 0.000132108 18.4361C0.000132108 18.4361 3.99376 23.4055 9.98348 23.4055C9.98348 23.4055 11.905 23.5332 13.5289 21.9815L17.0887 18.4112L19.765 22.8277Z" fill="url(#paint3_linear_5751_633)"/>
<path d="M17.0887 18.4107L19.765 22.8277L20.6274 21.9418L17.0887 18.4107Z" fill="#1253A5"/>
<defs>
<linearGradient id="paint0_linear_5751_633" x1="2.51156" y1="28.732" x2="2.51156" y2="4.54674" gradientUnits="userSpaceOnUse">
<stop offset="0.4158" stop-color="#6FC05E"/>
<stop offset="0.5325" stop-color="#74C15C"/>
<stop offset="0.6661" stop-color="#82C556"/>
<stop offset="0.8078" stop-color="#98CC4D"/>
<stop offset="0.9545" stop-color="#B8D540"/>
<stop offset="0.9656" stop-color="#BBD63F"/>
</linearGradient>
<linearGradient id="paint1_linear_5751_633" x1="42.3966" y1="28.3879" x2="0.58745" y2="9.22535" gradientUnits="userSpaceOnUse">
<stop offset="0.0877" stop-color="#1253A5"/>
<stop offset="0.3069" stop-color="#348BB8"/>
<stop offset="0.4792" stop-color="#4BB1C4"/>
<stop offset="0.5699" stop-color="#54BFC9"/>
<stop offset="1" stop-color="#BBD63F"/>
</linearGradient>
<linearGradient id="paint2_linear_5751_633" x1="8.07704" y1="3.1877" x2="38.1262" y2="22.8261" gradientUnits="userSpaceOnUse">
<stop offset="0.348" stop-color="#1253A5"/>
<stop offset="0.3634" stop-color="#1156A5"/>
<stop offset="0.624" stop-color="#058BAC"/>
<stop offset="0.7514" stop-color="#009FAF"/>
<stop offset="1" stop-color="#54BFC9"/>
</linearGradient>
<linearGradient id="paint3_linear_5751_633" x1="25.888" y1="16.9999" x2="5.38071" y2="23.5681" gradientUnits="userSpaceOnUse">
<stop stop-color="#009FAF"/>
<stop offset="0.1604" stop-color="#1CAAB8"/>
<stop offset="0.348" stop-color="#34B3BF"/>
<stop offset="0.5447" stop-color="#46BAC5"/>
<stop offset="0.754" stop-color="#51BEC8"/>
<stop offset="0.9976" stop-color="#54BFC9"/>
</linearGradient>
</defs>
</svg>
